<?xml version="1.0" standalone="no"?>
<!DOCTYPE svg PUBLIC "-//W3C//DTD SVG 1.1//EN" "http://www.w3.org/Graphics/SVG/1.1/DTD/svg11.dtd" >
<svg xmlns="http://www.w3.org/2000/svg" xmlns:xlink="http://www.w3.org/1999/xlink" version="1.1">
<metadata>
Created by FontForge 20201107 at Thu Jun 28 19:08:05 2012
 By 
Made with Scanahand. Copyright (c)  2012. All Rights Reserved.
</metadata>
<defs>
<font id="AcceptanceLetter" horiz-adv-x="1299" >
  <font-face 
    font-family="Acceptance Letter"
    font-weight="400"
    font-stretch="normal"
    units-per-em="2048"
    panose-1="3 0 6 0 0 0 0 0 0 0"
    ascent="1638"
    descent="-410"
    x-height="980"
    cap-height="1773"
    bbox="-706 -794 2989 1895"
    underline-thickness="150"
    underline-position="-292"
    unicode-range="U+0020-2026"
  />
<missing-glyph horiz-adv-x="1434" 
d="M60 0v1797h1294v-1797h-1294zM140 80h1134v1637h-1134v-1637z" />
    <glyph glyph-name=".notdef" horiz-adv-x="1434" 
d="M60 0v1797h1294v-1797h-1294zM140 80h1134v1637h-1134v-1637z" />
    <glyph glyph-name=".null" horiz-adv-x="0" 
 />
    <glyph glyph-name="nonmarkingreturn" horiz-adv-x="550" 
 />
    <glyph glyph-name="space" unicode=" " horiz-adv-x="896" 
 />
    <glyph glyph-name="space" unicode="&#xa0;" horiz-adv-x="896" 
 />
    <glyph glyph-name="exclam" unicode="!" horiz-adv-x="752" 
d="M300 1773h116q47 -7 47 -46v-1144q0 -46 -47 -46h-116q-47 0 -47 46v1144q7 46 47 46zM230 257h186q60 -94 94 -94v-70q-38 0 -117 -140h-47q-134 94 -163 94v116q47 0 47 94z" />
    <glyph glyph-name="quotedbl" unicode="&#x22;" horiz-adv-x="1103" 
d="M284 1680q134 -93 163 -93v-187q-39 0 -117 -117h-46v117q-79 140 -117 140v23q0 32 117 117zM727 1680q134 -93 163 -93v-187q-86 0 -93 -117h-70v117l-117 163q0 32 117 117z" />
    <glyph glyph-name="quotesingle" unicode="'" horiz-adv-x="686" 
d="M283 1703h23q152 -77 163 -140v-116q-93 -94 -93 -164h-93v140q-79 140 -117 140v24q0 31 117 116z" />
    <glyph glyph-name="parenleft" unicode="(" horiz-adv-x="986" 
d="M615 1657h257q46 -8 46 -47v-23q0 -47 -46 -47h-117q0 -70 -117 -93q-100 -66 -140 -187h-23v-373h-47v-117l47 -70v-23h-47v-47h47v-163q53 0 70 -94q74 -97 233 -163h117l23 -117l-46 -23h-304q0 60 -116 70q0 35 -164 187q0 49 -116 186q0 87 -47 140v514q60 0 70 116
q53 0 93 70q0 117 117 117q86 122 210 163v24z" />
    <glyph glyph-name="parenright" unicode=")" horiz-adv-x="1031" 
d="M46 1797h233q73 -70 163 -94q0 -48 257 -210q0 -74 117 -163q0 -79 70 -140v-537q0 -46 -70 -46v-140q-97 -81 -164 -234q-148 -149 -256 -186q0 -47 -47 -47h-350v140h140q73 70 163 93q94 76 140 210q47 0 47 47v140h47v47h-47v70h47v163h-47v420q-78 0 -93 140
q-104 117 -187 117q-23 0 -23 46h-140q-47 0 -47 47v70q7 47 47 47z" />
    <glyph glyph-name="comma" unicode="," horiz-adv-x="825" 
d="M328 467h23q172 0 187 -70v-234q0 -29 -187 -186h-23q-47 0 -47 46q0 22 94 140v47q-117 0 -117 70v117q0 33 70 70z" />
    <glyph glyph-name="period" unicode="." horiz-adv-x="888" 
d="M328 397h140q33 0 140 -140v-94q0 -33 -140 -140h-46v47h-140q0 93 -47 93v47q93 146 93 187z" />
    <glyph glyph-name="zero" unicode="0" horiz-adv-x="1601" 
d="M636 1750h466q52 -42 211 -70q0 -250 140 -280q0 -93 70 -93v-654q-70 -76 -70 -116q23 -46 23 -70q-163 0 -163 -280q-281 -51 -281 -117h-606q0 79 -164 117v256q-116 0 -116 117q0 87 -47 140v257q41 52 70 256q93 0 93 47q47 107 47 163h210q0 117 70 117v117
q47 57 47 93zM612 1517q0 -70 -70 -164q0 -46 -93 -46v-164q-38 0 -70 -46l23 -47v-233l-23 -117q70 -70 163 -70v-233q0 -47 117 -47v-163h420q47 0 47 46v234h93v163l70 93v140q-70 0 -70 47v233h-93v117q-117 145 -117 257h-397z" />
    <glyph glyph-name="one" unicode="1" horiz-adv-x="877" 
d="M384 1773h117v-233q70 0 70 -47v-980l-24 -116q46 -24 70 -24v-163q0 -32 187 -140l140 23l23 -46v-47q0 -47 -46 -47h-840q-47 0 -47 47v23q35 0 93 70l47 -23q93 99 140 210h23v1050q0 34 -70 70h-23v-47h-117q-46 0 -46 47v70q46 0 233 210q70 41 70 93z" />
    <glyph glyph-name="two" unicode="2" 
d="M516 1797h350q0 -60 117 -70q5 -80 140 -140v-374q-77 0 -140 -186l-117 -70l23 -47q-174 -151 -280 -350l-420 -397h-93v24q0 75 163 93v117q0 40 140 116l280 374q64 27 140 256q53 0 94 70q0 70 46 70v47q-123 280 -186 280q-24 45 -24 70l-116 -23h-94l-46 23
q-76 -87 -140 -210h-24v-163q0 -31 -140 -94q-36 0 -93 94v93q59 135 163 210v23h140q0 47 117 140v24zM1240 373h46v-70q-286 -321 -397 -350h-93l-70 47h-630q-34 0 -70 70v117q47 0 47 -94h23l70 47h560l70 47h163q0 46 141 93q0 31 140 93z" />
    <glyph glyph-name="three" unicode="3" horiz-adv-x="1183" 
d="M343 1773h350q140 -46 140 -93q117 -76 187 -187v-303q-167 -233 -280 -233v-24q103 0 280 -233v-327q-174 -204 -444 -326h-396q-104 116 -187 116v94q23 0 23 -24q117 40 117 117h93q0 -140 94 -140l46 -23h327q0 57 117 256v70q-47 0 -94 140q-93 169 -163 187h-210
q-33 0 -70 117h-23v46q7 47 46 47h24q0 -70 46 -70h304l46 23l-23 47q70 61 70 140q47 0 47 47v70q-60 0 -70 116q-47 0 -47 47l23 47q-70 0 -116 116h-327l-70 -116h-23q-47 0 -47 46v47q47 0 210 163z" />
    <glyph glyph-name="four" unicode="4" horiz-adv-x="1505" 
d="M889 1703h47q47 -7 47 -46v-234h47v-466q46 0 46 -47h420v-47q0 -46 -46 -46h-164v-47h-210q0 -47 -46 -47v-46l46 -70v-47h-46v-93q53 -187 210 -187l93 -70h163v-117h-817q-46 0 -46 47v23q86 0 140 164h23v396q-16 0 -93 47v47l46 70v116h47v47h-47v23l47 70
q-47 0 -47 47v117h-93q-165 -325 -303 -327l-70 -93l23 -47l47 23h256q47 -7 47 -46v-47h-373v-47h-24l-70 47q0 -47 -46 -47h-187v70q39 0 933 910z" />
    <glyph glyph-name="five" unicode="5" horiz-adv-x="1241" 
d="M998 1797h47q57 -47 94 -47v-187q0 -46 -47 -46h-24q0 70 -46 70h-117v46h-350q0 -59 -117 -70v-443q0 -36 94 -93h350q102 -117 140 -117v-117q0 -33 117 -70q0 -70 46 -70v-93l-46 -70v-327q-65 0 -187 -163q-59 0 -117 -47h-327l-163 140h-117q0 47 -116 140
q0 59 -47 117v140q47 0 47 47h70q0 -60 116 -70v-187q47 0 94 -140l93 -70h257q32 117 116 117l-23 46l117 187v210h-117q-47 0 -47 47v116q-93 0 -93 47v47h-373q-77 70 -117 70v23q0 47 70 47v23q-70 0 -70 47v93q0 47 70 47v23q-70 0 -70 47v350q7 46 47 46h443v47h303
v47z" />
    <glyph glyph-name="six" unicode="6" horiz-adv-x="1367" 
d="M959 1750h47v-47h116v47h47l70 -47h117v-23l-70 -93q33 0 70 -70v-24h-327q0 53 -93 70v70h-47v-46h-140v-94h-70q0 47 -47 47v70q94 0 94 47h116zM586 1470h23q47 -7 47 -47q-61 -158 -210 -210q0 -70 -47 -70v-116l-47 -70l70 -47q0 31 140 93h490q0 -52 70 -93h24
v-117q117 -90 117 -140q46 -7 46 -46v-164q-70 0 -70 -46q24 -41 24 -94q-117 0 -117 -116h-164q-87 -41 -140 -210h-373q-133 46 -163 163q-187 96 -187 140v327l47 70v233l350 513zM446 887v-140q-94 0 -94 -47v-350q94 0 94 -47q0 -52 70 -93q23 0 23 -47h350q0 53 70 94
q70 0 70 70q0 23 47 23v280h-140v117q-117 70 -117 140h-373z" />
    <glyph glyph-name="seven" unicode="7" horiz-adv-x="1427" 
d="M158 1773q156 -140 210 -256q70 0 70 -47h536v47h257v93h257v-163q-41 0 -187 -164l-46 24v-47h46v-23q0 -94 -163 -94v-116q-73 -83 -117 -187q-63 0 -140 -70l23 -47v-70q-116 0 -116 -46v-117q-164 -10 -164 -140h-70v-47h94v-210h-327v47h-140v47l-23 163
q163 0 163 93q0 24 93 24v140q164 0 164 93v117h93v140q144 0 233 210h70v46l-46 70v24q47 0 140 46v47h-70v-47h-677v47q-52 0 -93 -163h-70q-47 0 -47 46v444q7 46 47 46z" />
    <glyph glyph-name="eight" unicode="8" horiz-adv-x="1489" 
d="M601 1727h420q0 -47 140 -94l163 -186q0 -24 -23 -24l23 -46v-257q-187 -210 -257 -210h-46v-47q128 0 303 -233q0 -23 -23 -23l23 -47v-187q0 -125 -233 -280q-34 0 -140 -70q-47 0 -47 -46h-490q0 86 -163 140q0 40 -70 140q0 70 -47 70v186q47 0 93 140q86 86 304 140
v47h-164q0 60 -116 70q0 62 -117 257v163q60 0 70 117q38 0 140 116q186 0 257 164zM554 1587q0 -47 -117 -140q0 -59 -46 -117v-187q116 -32 116 -116q0 -60 117 -70v-47l163 23h210q0 112 117 257v23q-154 309 -233 350v24h-327zM577 793l-140 -163q0 -70 -46 -70v-187
q93 -99 140 -210q58 0 116 -46h350q35 233 117 233v47q-77 90 -140 280q-31 0 -117 116l-46 -23h-187z" />
    <glyph glyph-name="nine" unicode="9" horiz-adv-x="1375" 
d="M550 1750h420q0 -60 117 -70q0 -130 187 -187l23 -46v-374q-70 0 -70 -46v-280q-52 0 -70 -94q-52 -20 -93 -163q-112 -45 -187 -233l-47 -24h-70v47q60 179 187 210q0 40 70 117v116h47q0 34 -70 70h-24q0 -46 -140 -93h-443q-33 0 -140 140v117q-124 0 -163 140v186h46
v117q0 34 117 70v70h163q76 29 140 210zM784 1563h-234q-47 -37 -186 -116q0 -70 -47 -70v-304l117 24l46 -70q-23 -41 -23 -94q117 0 117 -116h373v116q0 47 117 47v350q-94 61 -94 117q-32 0 -140 140zM37 210h327q0 -53 93 -70v-70h23l164 70v70h46q37 0 94 -93v-24
q-109 0 -164 -70h-23l-47 24q-93 -85 -93 -117h-23l-70 47h-70l-70 -47q-187 65 -187 93l47 70v47h-47v70z" />
    <glyph glyph-name="colon" unicode=":" horiz-adv-x="699" 
d="M290 1073h23l164 -93q0 -70 46 -70v-70q-59 0 -70 -117q-93 0 -93 -46h-70q-51 0 -117 163h-23v70q47 0 93 140zM243 397h140q33 0 140 -140v-94q0 -33 -140 -140h-46v47h-140q0 93 -47 93v47q93 146 93 187z" />
    <glyph glyph-name="semicolon" unicode=";" horiz-adv-x="639" 
d="M281 1073h70q0 -30 116 -116v-24q0 -128 -163 -186h-23q-38 0 -94 140h-23v70q31 0 117 116zM234 467h23q172 0 187 -70v-234q0 -29 -187 -186h-46v93l70 93v47q-117 0 -117 70v117q0 33 70 70z" />
    <glyph glyph-name="question" unicode="?" horiz-adv-x="1121" 
d="M396 1820h397q0 -93 116 -93q0 -88 117 -140q0 -94 47 -94v-490h-47v-23l24 -117q-94 -38 -94 -140h-210q0 -93 -47 -93q-52 0 -93 -70q-23 -140 -70 -140h-23q-37 0 -94 93v47l187 280v23h187q42 0 70 210q23 0 23 24v93l-47 70v117q-59 0 -93 93q-41 163 -93 163h-257
q-52 0 -93 -163q-78 0 -117 -117v-280q93 -46 140 -46v-94h-327q0 30 -23 234q0 303 140 303q23 35 23 140h164q93 155 93 210zM396 280h140q47 0 70 -140l-70 -140h-70q-163 80 -163 117v70q33 0 93 93z" />
    <glyph glyph-name="A" unicode="A" horiz-adv-x="1918" 
d="M999 1703q141 -350 187 -350v-163q80 0 94 -187q93 -40 116 -233q38 0 94 -140q46 -7 46 -47v-140q47 0 47 -46h163v-47h187q47 -7 47 -47v-93q-117 0 -117 -70h-117q0 70 -46 70h-70l-94 -70h-186v47h-47v-47h-70q0 70 -117 70v93q48 94 117 94v140h-117l-70 -47h-210
v47h-47v-47h-70v47h-46q0 -47 -94 -47v-140q117 -7 117 -70v-93q0 -47 -47 -47h-653v93q60 0 70 117h70l47 -23l186 140q0 59 117 186q0 97 117 140v117q0 34 70 70l-24 47v46q70 70 140 397q60 0 70 117q24 116 140 116zM743 1097v-164h-47v-116l-70 -94v-46h490v93
q-70 0 -70 47l24 46q-78 0 -141 304h-93q-58 -70 -93 -70z" />
    <glyph glyph-name="B" unicode="B" horiz-adv-x="1652" 
d="M87 1610h70v-47h46v47h70l70 -47v47h210v-47h140l70 47h514q0 -52 70 -93q70 0 140 -94h23v-140h47v-140q0 -46 -233 -303q64 0 186 -93v-140h47v-140q-68 -152 -187 -234q-87 0 -140 -46h-607l-70 -47h-443v-47h-23q-47 0 -47 47v23q0 28 187 94q128 87 163 186v957
q-32 0 -140 70v23h-163q-47 0 -47 47v23q7 47 47 47zM740 1493v-46h-140v-280q47 -54 47 -140h116l70 -47h234q160 93 187 93v280q-53 0 -94 70v24h-373v46h-47zM647 770v-373q7 -47 46 -47q46 23 70 23q0 -33 70 -70h234q187 96 187 140v210q0 32 -117 117h-490z" />
    <glyph glyph-name="C" unicode="C" horiz-adv-x="1494" 
d="M1041 1587h117q0 -61 210 -350q0 -32 94 -117q0 -47 -47 -47h-70q-406 397 -467 397h-117v70h210zM621 1540h117v-70q-295 -120 -327 -210v-117q-52 0 -70 -93l-46 -23l23 -47v-233l-23 -47q64 0 93 -233q97 -91 233 -164h350q227 108 421 374h116v-24
q-134 -250 -326 -513h-47l-70 47h-234l-70 -47h-70l-70 47l-116 -24q0 32 -280 187q-164 172 -164 420q-23 0 -23 23v117l47 70v163q59 0 70 117l210 140l116 70v23h140v47z" />
    <glyph glyph-name="D" unicode="D" horiz-adv-x="2175" 
d="M1105 1727h234q51 -42 210 -70q0 -21 350 -187q116 -117 186 -303h24v-280l23 -164q-140 -93 -140 -210q-47 0 -257 -233h-140q0 -54 -93 -117q-109 0 -163 -46h-210l-94 -70h-70l-93 70h-24q-76 -70 -116 -70l-47 23l-47 -23q-70 0 -70 70h-70q-33 0 -70 -70l-116 23
h-327v117q25 0 70 23l140 -23l187 140q0 46 70 46v817q-70 0 -70 47v186q-164 56 -164 94v23h-163v47q0 36 93 93h887zM942 1540h-210q-37 0 -94 -93v-24l70 -93v-910h47v-163h607q0 59 117 70v46h163q0 119 117 187l46 70v420q-163 284 -163 327q0 52 -233 116v47h-327v47
h-70z" />
    <glyph glyph-name="E" unicode="E" horiz-adv-x="2030" 
d="M1552 1843q170 -186 233 -186l164 -117v-93h-187q0 70 -47 70h-140v46h-140q-46 0 -46 70h-654l-163 -93q0 -97 23 -257v-280q47 0 47 -70h326q0 61 164 117l117 187h46v-700q0 -47 -46 -47h-24q-70 105 -70 187l-210 116h-210q-36 0 -93 -93v-187h-47v-23l47 -70v-303
h933q0 53 117 70q0 36 93 93h140q0 70 47 70q47 -7 47 -47q-70 -73 -94 -163q-170 -171 -280 -210v-23h-210l-70 46h-186v-46h-677v46h-164v-46h-373v46q14 61 303 187l117 187v606l-70 94v140q70 0 70 46q-70 0 -70 47v140l-163 117q-86 0 -140 93q7 47 46 47h140
q0 70 47 70h910v46h350q0 70 47 70z" />
    <glyph glyph-name="F" unicode="F" horiz-adv-x="1573" 
d="M1442 1750h23q17 -110 257 -210q0 -70 70 -70v-70h-140l-70 47h-117q0 79 -187 93q0 23 -23 23h-537q-53 -46 -140 -46v-490q0 -37 93 -94h210l187 140q70 0 70 140h70v-653h-46q-38 0 -94 140q-61 70 -140 70q0 47 -47 47h-163q-36 0 -93 -94v-163h-47v-23l47 -70v-280
h373q0 -47 94 -47v-70h-537l-94 -70h-23q-23 0 -23 23l-47 -23h-303l-70 -47h-24q0 25 -23 70q23 45 23 70h117q257 257 303 257v583l-70 94v70l70 93q-70 0 -70 47q24 41 24 93q-133 117 -210 117q0 70 -70 70v70h163v46h817l70 47h280q0 70 47 70z" />
    <glyph glyph-name="G" unicode="G" horiz-adv-x="1737" 
d="M1247 1727h47q53 -14 187 -304h23v-233h-70q0 173 -327 327h-397q0 -60 -116 -70q-94 -99 -140 -210h-24v-350l-46 -70v-117h46v-70h-46v-23l46 -70v-117q60 0 70 -117q100 -93 210 -140v-23h327q0 54 94 117l46 -24l140 164v350q0 50 -163 116q0 47 -47 47l-140 -23
q-47 0 -47 46v47h771q46 -7 46 -47v-46q0 -38 -163 -94v-46h47v-70q-25 0 -70 -24l23 -46v-210q-37 -95 -187 -140q-163 -234 -350 -234q0 -23 -23 -23h-490q0 60 -117 70q0 35 -163 187q0 86 -94 140h-23v163q-70 0 -70 47v490l93 163q42 0 117 163q77 0 233 187
q59 0 117 47h584q0 70 46 70z" />
    <glyph glyph-name="H" unicode="H" horiz-adv-x="2363" 
d="M15 1797h70v-47h630v47h93q57 -47 94 -47v-93q-193 -7 -280 -140v-537h1073q0 93 70 163v187q-64 65 -93 233q-53 47 -140 47v70q35 0 93 70h607v47h70v-70l-210 -117q-10 -117 -70 -117v-606q0 -47 -70 -47v-140q70 0 70 -47v-396q117 -164 233 -164q0 -46 47 -46v-70
h-537l-93 -70h-280q-47 0 -47 46v94h234q0 70 116 93q0 93 70 93v280l-70 94v186h-186l-70 47q0 -47 -47 -47l-70 47q0 -47 -47 -47h-210v47h-303q-53 -47 -140 -47v-536q46 -140 93 -140q40 0 117 -70h187v-70h-957v70q186 0 233 186l70 94v1120q-147 186 -233 186v24h-140
q-47 0 -47 46q70 59 70 94z" />
    <glyph glyph-name="I" unicode="I" horiz-adv-x="948" 
d="M795 1773h47q46 -7 46 -46v-24q-105 -70 -186 -70q-58 -156 -117 -210l23 -46v-467l-70 -93v-117q70 0 70 -47v-373q74 -122 210 -163q70 -54 70 -70q0 -47 -46 -47h-490l-70 -47h-327v94q7 46 47 46h186q0 53 94 70q0 94 70 94v303q-70 0 -70 117v373q0 47 70 47v256
q-70 0 -70 70q23 46 23 70q-75 94 -187 94v70q40 0 117 70h560v46z" />
    <glyph glyph-name="J" unicode="J" 
d="M651 1750h607v-70q-187 0 -187 -163q-23 0 -23 -24v-513q0 -47 -70 -47v-93q0 -47 70 -47v-583q-163 -49 -163 -210h-444v47h-140v-47h-116v117l-70 93v23l23 47q-34 0 -70 70v187h70q0 -104 117 -187q0 -91 186 -233h257q0 59 117 70v140h46l-46 70v280q-70 0 -70 46
v397l70 93v164l-70 93v23l23 47q-79 93 -163 93v70q46 0 46 47z" />
    <glyph glyph-name="K" unicode="K" horiz-adv-x="1720" 
d="M500 1727h93q47 0 47 -70t-70 -70v-490q46 0 46 -47h47q0 53 117 70q64 158 233 303v140h164v47h466v-47q0 -64 -373 -210q-41 -46 -117 -46v-117q-92 -147 -280 -210l-23 -47q70 0 70 -116l70 46h46v-163q187 -124 187 -233q315 -327 397 -327q93 0 93 -47
q0 -36 -93 -93h-467q-76 0 -117 233q-39 110 -140 187q0 77 -186 257q0 163 -70 163h-24q0 -47 -46 -47v-606q68 0 116 -94v-93h-280q0 -70 -46 -70h-47l-93 70h-117v70q119 0 187 117h23v1120q-29 0 -140 116h-23q-47 0 -47 -70h-23q-47 0 -47 47v93q67 0 187 70
q280 117 280 164z" />
    <glyph glyph-name="L" unicode="L" horiz-adv-x="1966" 
d="M831 1797h93v-140q-248 0 -327 -257v-863l47 -70v-210q0 -37 93 -94q0 70 47 70h654l70 47h186q0 47 140 93q0 54 140 94v23h70v-117q-38 0 -140 -116q-86 -110 -256 -210v-24h-140q-47 0 -47 70h-887q-47 0 -47 -70h-23l-93 70h-94q0 -70 -46 -70h-257v94
q193 64 210 140q45 23 70 23v1167l-117 140v93h327q0 70 47 70h163l47 -23q0 33 70 70z" />
    <glyph glyph-name="M" unicode="M" horiz-adv-x="2911" 
d="M1052 1680q0 -22 94 -187q0 -163 46 -210v-116h47v-187l70 -93v-117h47v-163q46 0 46 -47h24q59 0 93 210h47v163q46 0 116 187q0 47 47 47v163h47v117q70 70 70 163h186q0 -27 70 -117q-23 -40 -23 -93q70 0 70 -47v-140h47v-116q54 -78 140 -327q46 0 46 -70
q-23 -45 -23 -70q38 0 93 -140q140 -122 140 -163h234q33 0 70 -70l46 23q47 -7 47 -47q0 -33 -117 -70v-23h-46l-70 47h-70l-70 -47h-444q-52 0 -93 -23q-45 23 -70 23v70q69 0 117 93v280q-70 0 -140 234l-47 23l23 117v70q-70 0 -70 116h-46q-210 -338 -210 -490
q-32 0 -117 -116v-187q-47 0 -117 -210h-116q0 69 -70 163q0 65 -117 210v47l23 47q-60 0 -93 210q-23 0 -23 23v187q-71 0 -71 163q-52 0 -93 -163q-47 0 -117 -210q-33 0 -70 -117h-23v-140q-70 -61 -70 -140h-47v-47q259 -163 280 -163v-47l-23 -46l-117 23h-723v70
q35 0 233 117q156 0 374 326q0 70 70 70v210q60 0 70 117q46 0 46 47v116q54 0 70 117l47 47l-23 46v24l93 163q60 70 140 70z" />
    <glyph glyph-name="N" unicode="N" horiz-adv-x="1784" 
d="M242 1680h140q0 -40 186 -210q0 -107 187 -233q0 -94 47 -94q70 0 70 -46v-140q46 0 140 -117q33 0 70 -117q117 0 117 -140l140 -116v1003l-187 140v70h537q46 -7 46 -47v-46l-186 -117q0 -233 -47 -233h-23v-1214h-140q0 117 -47 117q-70 0 -70 70q0 54 -140 70
q0 128 -117 210q0 93 -117 93q0 130 -186 257q0 120 -94 163q-66 164 -116 164v-910q70 -117 186 -117v-70q0 -47 -46 -47h-537v47q134 163 187 163v140q0 34 70 70l-24 47v793l24 47q-34 0 -70 70v280z" />
    <glyph glyph-name="O" unicode="O" horiz-adv-x="1485" 
d="M598 1633h373q70 -93 117 -93q45 23 70 23q0 -126 164 -233q0 -63 70 -140v-490q-56 -65 -94 -187q-140 -22 -140 -186q-90 0 -187 -70q-35 0 -93 -70h-490q-98 140 -163 140q-47 0 -47 46v140q-93 0 -93 140q0 37 -47 94v233h47v163q163 94 163 187q0 42 210 70
q42 160 140 233zM318 1050v-327q93 -46 140 -46v-140q117 -61 117 -164h420v70q0 93 117 164q0 109 46 163v93q-42 52 -70 210q-117 0 -117 164q-23 0 -70 163h-350q-78 -58 -116 -187q-94 0 -94 -140q-23 0 -23 -23z" />
    <glyph glyph-name="P" unicode="P" horiz-adv-x="1760" 
d="M25 1773h117v-46h23l70 46h47l70 -46h23v46h233q0 -70 47 -70h163q0 70 47 70h584q80 -97 233 -163q93 -87 117 -257q46 -7 46 -46v-24q0 -101 -186 -326q-159 -28 -210 -70h-677q-47 -8 -47 -47v-420q70 -61 70 -140l163 -93v-24h187q47 -7 47 -46v-47h-514
q0 -38 -46 -70l-117 23h-373q-47 0 -47 -70h-70v140h163q0 66 164 140q0 94 70 94v1190q-53 0 -210 116h-187v140zM842 1633q0 -70 -47 -70h-117v-373q60 0 70 -117q140 0 187 -46h327l210 116l-23 117v70l23 117q-79 0 -117 116h-420q-47 0 -47 70h-46z" />
    <glyph glyph-name="Q" unicode="Q" horiz-adv-x="1843" 
d="M547 1703h420q47 0 47 -70h164q11 -186 163 -186q0 -59 47 -117v-420q-47 -140 -94 -140q-70 0 -70 -47v-70l70 -93v-70q0 -23 -23 -23q93 -151 93 -187l70 -47h47q303 170 303 280q8 47 47 47h47v-140q-94 -108 -94 -163q-112 -140 -280 -140q-40 0 -116 -70h-24l-93 70
h-117q0 54 -93 116h-23v117l-47 70v117h-94v-47h-606q0 27 -70 117l-47 -24q-47 0 -70 187q-117 0 -117 163q-23 0 -23 24v163q42 51 70 210q140 0 140 140h187q41 0 116 163zM477 1517q-52 -187 -163 -187q0 -58 -47 -117v-280q164 -55 164 -93v-47l-24 -46q117 0 117 -117
h397q-47 140 -94 140v117h234q36 0 93 93v93q-64 0 -93 164q-70 0 -70 70q-64 181 -140 210h-374z" />
    <glyph glyph-name="R" unicode="R" horiz-adv-x="2411" 
d="M709 1750h607q0 -60 116 -70q0 -53 117 -70q117 -103 117 -187q70 -56 70 -116q-53 0 -94 -164q-181 -64 -210 -140v-116q181 -65 210 -140q90 -194 140 -257v-187q47 0 94 -140l46 -23h94q194 76 326 280v47h70v-187q-59 0 -70 -117q-57 0 -163 -163h-187q-46 0 -46 -70
h-94q-46 0 -46 70h-164q0 71 -116 117v163q-70 0 -70 47v140q-47 0 -140 233q-33 111 -140 117q0 53 -94 93h-233q0 -53 -117 -70q0 -23 -47 -23v-397h47v-163q70 0 70 -117h234q54 -70 163 -70v-70h-187l-93 -70h-47q-47 0 -47 70h-396q-47 0 -47 -70h-70q0 70 -70 70
l-47 -23q-45 23 -70 23v70q82 0 187 70q69 0 117 93v1144q-70 0 -94 116q-93 0 -93 70h-280v47q0 37 93 93h654v47zM732 1610q0 -47 -47 -47v-420l70 -93l117 23l117 -23q0 70 47 70h256q0 47 47 47v186q-66 160 -163 234v23h-444z" />
    <glyph glyph-name="S" unicode="S" horiz-adv-x="1535" 
d="M1135 1727h47q75 0 116 -234q47 0 70 -280q24 0 24 -23v-117q0 -46 -47 -46h-47q-26 0 -140 280q-78 0 -93 140q-13 0 -117 93h-187q-110 -117 -140 -117v-140l164 -116q81 0 303 -210q70 0 234 -187q17 -93 70 -93v-374q-164 -146 -164 -210v-46h-187l-70 -47h-280
l-70 47h-186l-70 -47h-94q-93 152 -93 233q-23 0 -23 24v116q-54 0 -70 117q-47 0 -47 47v186h47q74 -13 116 -163q126 -73 187 -257l210 -116h443q0 59 117 70v140h47q-78 217 -117 256q-85 85 -397 257l-256 280v257q60 0 70 116q117 0 256 117h257l47 -23q0 33 70 70z
" />
    <glyph glyph-name="T" unicode="T" horiz-adv-x="1882" 
d="M1060 1727h93q0 -70 47 -70h23q47 0 47 70h606q102 -163 187 -397v-117q-47 0 -47 -46h-93q-278 373 -420 373q0 47 -47 47h-350v-560l-70 -94v-46q70 0 70 -47v-513q60 0 70 -117l94 -70l140 23q23 0 116 -116q0 -47 -46 -47h-864v-47h-93q0 47 -47 47v93h140
q161 47 210 210v374h-47v840h-350q0 -47 -140 -94q0 -31 -256 -256h-47v186h47v140q70 73 93 164q41 23 93 23h187q23 0 23 -23l47 23h210l140 -23l47 23q41 -23 93 -23z" />
    <glyph glyph-name="U" unicode="U" horiz-adv-x="1824" 
d="M604 1820l47 -23l46 23q24 0 24 -23l116 23l117 -23v-70q-172 0 -280 -140q0 -94 -70 -94v-793q0 -53 23 -93q0 -70 -70 -70v-47q25 0 70 -23l-23 -117v-70l233 -140q0 -23 24 -23h23v46h187q29 0 187 187q17 93 70 93v187q46 71 70 163q-34 0 -70 70v47l46 70
q-46 0 -46 47l46 70v396l24 47q-70 0 -70 70h-164q0 70 -70 70v23q7 47 47 47h187q0 38 46 70l164 -23h70l116 23l24 -47v-116l-164 -304v-350h47v-233h-47v-187q-64 -64 -93 -233q-295 -280 -327 -280q-46 0 -46 -47h-467q0 60 -117 70l-117 210q0 70 -46 70v117l-70 93v94
l46 70v23h-46v23l70 94v606q-79 0 -117 117h-280v47q0 30 140 93h420q0 70 70 70z" />
    <glyph glyph-name="V" unicode="V" horiz-adv-x="1872" 
d="M114 1843h46l94 -70h93l93 70h210q0 -70 47 -70q23 46 23 70h24q65 -70 186 -93v-117q-72 0 -140 -116v-117q131 0 187 -373q54 0 94 -140q41 0 70 -210l46 23h24l46 -23l94 116v140h46v187q80 0 94 210h46v280q-140 0 -140 70v93q0 34 70 70h677q47 -7 47 -46v-47
q-54 0 -70 -117q-41 -23 -94 -23h-93q0 -60 -117 -70q-70 -73 -93 -163q-77 -32 -117 -210q-116 -32 -116 -117q-33 -327 -117 -327v-140q0 -46 -70 -46v-187q-70 0 -140 -257h-140q0 82 -70 187q0 57 -70 117l23 46q-33 0 -70 70v140q-80 0 -93 210q-81 0 -117 257
q-79 0 -163 210q-24 0 -24 23v140q-123 86 -350 117q-163 0 -163 93q0 54 140 94q7 46 47 46z" />
    <glyph glyph-name="W" unicode="W" horiz-adv-x="2672" 
d="M2670 1867h257v-117q0 -47 -47 -47l-117 24q0 -26 -210 -234q0 -75 -116 -256q0 -94 -70 -94l23 -46q-70 -57 -93 -304h-47v-140q-35 -29 -70 -280h-47v-210q0 -36 -93 -93h-23q-117 70 -117 187q-53 0 -70 116q-23 91 -93 164v140q-70 0 -70 46l23 47q-34 0 -70 70v140
q-117 0 -140 257l-70 46h-23q0 -116 -47 -116v-140q0 -47 -70 -47v-187q-25 0 -70 -23l23 -47v-70q0 -46 -70 -46v-140q0 -47 -70 -47v-327q0 -46 -46 -46h-47q-127 140 -164 140v140q-154 131 -163 303q-23 0 -23 23v140q-70 0 -140 257h-47v140q-70 68 -140 280l-233 163
v24h-140q-47 0 -47 46q0 42 210 70q0 24 23 24h490q77 -70 117 -70v-24q-84 -116 -140 -116v-94q70 0 93 -116q47 0 47 -117l-23 -47q33 0 70 -70v-140q70 0 93 -116q32 -126 94 -164v-23h93v233q78 0 93 140q34 145 94 210v140q70 0 70 47v23q0 41 -257 117v23
q0 24 117 117h536q47 -7 47 -47v-70l-47 -70v-163q56 -163 117 -163v-140q13 0 140 -280q47 0 47 -117h93v140q0 34 70 70l-23 47v46l116 187h24v210q0 34 70 70q-104 187 -257 187v46q7 47 47 47h140v47h326q47 0 47 70z" />
    <glyph glyph-name="X" unicode="X" horiz-adv-x="1672" 
d="M1338 1797h94q163 -64 163 -94v-46h-210l-163 -140l23 -47l-140 -93q0 -48 -117 -210q0 -47 -47 -47v-187l257 -513q37 0 94 -187h140q51 -41 233 -70v-23q0 -47 -47 -47h-140q0 -70 -116 -70h-304q-23 0 -23 24l-47 -24h-23q-32 0 -117 117q63 93 117 93v47
q-47 0 -94 140q-33 145 -93 210l23 47l-46 23q-117 -152 -117 -233q0 -42 -117 -164v-70q199 -22 234 -93q0 -47 -47 -47h-140q0 -70 -47 -70h-233l-47 24q0 -34 -70 -70h-93q0 62 -140 93v47q23 45 23 70h117q0 -70 47 -70q0 52 186 163q0 63 187 233q0 70 117 187v187h46
v23q-116 104 -116 187q0 23 -47 23v140q-133 109 -187 257l-186 116v94l116 23h397q47 -7 47 -47v-70l-47 -70v-70q60 0 70 -116q42 0 93 -187v-47h47q0 67 70 187q0 117 117 117v46q-48 94 -117 94v93q110 70 164 70h116l117 -23q23 45 23 70z" />
    <glyph glyph-name="Y" unicode="Y" horiz-adv-x="1973" 
d="M69 1797h817q47 -7 47 -47q0 -33 -117 -70q0 -23 -93 -23v-70q397 -459 420 -514h93q304 298 304 374q0 52 70 93h23v23l-47 70v117q8 47 47 47h677q46 -7 46 -47q0 -47 -46 -47h-164q0 -59 -116 -70q0 -52 -94 -70q-93 -23 -256 -210q-76 0 -187 -163l-210 -210l23 -117
q0 -46 -70 -46v-47l70 -93v-164l-23 -46q117 -61 117 -210h210q0 -38 46 -70l47 23q45 -23 70 -23v-70h-210q0 -70 -47 -70h-350l-93 70l-93 -70h-304q-47 0 -47 46q0 34 117 70v24h117q61 70 140 70q0 140 70 140l-23 116l23 117q-45 23 -70 23v117h47v23l-654 747l-47 -23
h-93q-47 0 -47 70h-116q-187 65 -187 93v47h117q46 0 46 70z" />
    <glyph glyph-name="Z" unicode="Z" horiz-adv-x="1963" 
d="M310 1773h47q39 0 70 -140q128 24 187 24l46 -24q41 24 94 24h23q23 0 23 -24q35 0 117 140q47 0 47 -116h23q0 116 47 116h583q0 -140 70 -140v-163q-105 -87 -140 -210q-186 -25 -186 -187q-41 0 -164 -233q-140 -19 -140 -140q-117 -70 -117 -187q-109 -70 -163 -70
h-70v-256q117 0 117 -47v-47h-234v-116h-93v116h-47l-93 -140h-233q-47 0 -47 47v70q12 0 163 233q89 62 140 70q0 119 117 187q0 163 187 163v140q0 34 116 70q0 46 140 234q0 54 94 116h140q0 94 70 164v70q0 46 -47 46h-443l-94 -140l-46 24q0 -60 -210 -94
q0 -93 -47 -93q-57 0 -117 -70h-70q-46 0 -46 47v233q0 93 140 210q0 93 46 93zM1827 537h164v-164q0 -33 -117 -70l-140 -186q-111 -33 -117 -140h-70q0 116 -46 116h-327v47q7 47 47 47h140q0 116 46 116h140q0 60 117 70q0 140 140 140q0 24 23 24z" />
    <glyph glyph-name="grave" unicode="`" horiz-adv-x="601" 
d="M521 1079h-69l-330 202q-31 20 -46.5 40t-15.5 42q0 31 20.5 51t53.5 20q20 0 40.5 -12t55.5 -47z" />
    <glyph glyph-name="a" unicode="a" horiz-adv-x="1552" 
d="M279 1073h23l93 -70h47q0 70 117 70h186q234 -129 234 -163q0 -70 46 -70v-303q70 -64 94 -280l70 -47h70q61 70 140 70q7 47 47 47h93v-94q0 -33 -117 -70q-163 -54 -163 -140h-210q-151 234 -187 234h-47q0 -43 -326 -234h-210q0 95 -117 117v140q35 134 327 397
l46 -24q0 54 140 94q0 93 47 93v93q-47 0 -47 47h-116q-99 -93 -210 -140q-117 -102 -117 -140h-117q0 25 -23 70q70 105 140 280zM419 327v-117h163l210 210v187q0 46 -47 46q-132 -86 -326 -326z" />
    <glyph glyph-name="b" unicode="b" horiz-adv-x="1475" 
d="M364 1727h94q46 -7 46 -47v-583l-23 -47q45 -23 70 -23v-164h47q140 140 210 140q0 24 23 24h304q0 -79 163 -117q0 -93 117 -187v-326q-101 -88 -140 -187q-41 0 -140 -70q-47 0 -140 -93h-327l-70 46h-70l-70 -46h-280q0 -70 -47 -70h-163q-47 0 -47 46q30 34 280 117
q0 23 47 23v210q70 0 70 47v490l-70 93v70q70 0 70 47v70q0 47 -70 47v140h-117q-47 0 -47 46q280 257 280 304zM551 630v-303q53 0 93 -70q117 -24 117 -94h140q0 70 47 70h117q0 94 46 94v280l-116 233q-47 0 -47 70h-140q-210 -156 -210 -233q0 -47 -47 -47z" />
    <glyph glyph-name="c" unicode="c" horiz-adv-x="1286" 
d="M797 1167h47q36 0 186 -234h70v-233h-70q0 47 -116 140q-47 32 -47 70h-373q0 -47 -140 -93l-24 -47v-117h-46v-70q41 -52 70 -256l186 -164h280q149 149 257 187q0 36 94 93h46v-93q-65 -50 -187 -257l-140 -116h-373q-47 0 -47 70h-163q0 46 -163 186q0 59 -47 117v397
q54 94 280 233q47 32 47 70h163q0 70 70 70q45 -23 70 -23q0 33 70 70z" />
    <glyph glyph-name="d" unicode="d" horiz-adv-x="1492" 
d="M1033 1657h117v-1120h-47v-94q47 0 164 -280h140q46 -7 46 -46v-24q-70 0 -70 -70h-303l-70 -46h-47q-70 94 -70 163h-140q0 -69 -93 -117h-350q-234 88 -234 304q-23 0 -23 23v210h47v163q77 0 186 187h257q47 -7 47 -47l-234 -163q0 -79 -70 -140v-70q0 -47 70 -47
v-163q71 0 117 -117h140q0 60 117 70q116 104 116 187q0 23 70 47l-23 116v140q-47 0 -47 94h-163q0 70 -70 70v70h93v-47h164l46 23l-23 47v303l23 47l-116 70v47q0 50 163 116q70 47 70 94z" />
    <glyph glyph-name="e" unicode="e" horiz-adv-x="1452" 
d="M476 1073h560q0 -100 281 -210v-303q0 -47 -47 -47h-840l-47 -23l23 -47v-23l-23 -47q26 0 233 -210h444q93 48 93 117h117q47 -7 47 -47v-46q0 -34 -70 -70l-47 23q0 -61 -164 -93v-47h-490q-202 140 -303 140q-70 96 -70 187q-70 0 -70 46v327q70 73 93 163
q117 140 210 140zM523 910q0 -78 -140 -93v-24q0 -42 210 -70v-46h163q0 70 47 70t47 -70h70q36 0 93 93v23q-95 0 -117 117h-373z" />
    <glyph glyph-name="f" unicode="f" horiz-adv-x="1206" 
d="M712 1750h374q74 -79 210 -163q0 -70 46 -70v-140q-46 -53 -46 -140h-187q0 46 -47 46v187h47v93q-37 0 -94 47h-233q-53 -47 -140 -47v-373q47 0 47 -47h280v-70l-117 -23q0 23 -23 23q0 -33 -70 -70h-117q0 -93 -47 -93v-47h47v-70h-47v-46h47v-280q-70 0 -70 -47
q80 -75 163 -210h304q53 -47 140 -47v-46q0 -47 -47 -47q-93 0 -93 23l-164 -23h-163l-117 23q0 -70 -46 -70h-420l-70 -46h-47v93q7 47 47 47h46l47 -24l187 210v514l46 70v23q-46 0 -46 93h-280q-47 0 -47 47v47q7 46 47 46h233q0 60 117 70l-24 117v23q0 54 70 164
q91 186 210 186q8 47 47 47z" />
    <glyph glyph-name="g" unicode="g" horiz-adv-x="1229" 
d="M940 1097h71v-187l-47 -70h47v-420q-87 0 -141 -47h-326l-70 -46h-117q0 -47 -47 -47v-47q53 0 94 -70v-23h303v-47h210q155 -62 257 -210q-23 -45 -23 -70q33 0 70 -70v-140q-94 -108 -94 -163l-163 -140q-37 0 -94 -47h-490l-70 47h-116q0 86 -164 140q0 49 -93 210
v187q53 0 93 70q137 41 210 163q-70 0 -70 47l24 116q-24 45 -24 70q34 0 70 70v94q-54 0 -116 93v117q67 0 210 210h350v46h116q140 92 140 164zM614 817q0 -47 -47 -47h-117q-46 -93 -46 -140h-47v-47q80 -4 140 -140h210q140 63 140 94v140q-64 116 -210 116q0 24 -23 24
zM380 -23q-116 -87 -116 -117l-70 -94v-46q93 -108 93 -164l140 -116h117q0 -25 23 -70l117 23l93 -23q0 56 163 116q0 94 47 94v46q-79 205 -233 257q-140 48 -140 94l-47 -24h-140z" />
    <glyph glyph-name="h" unicode="h" horiz-adv-x="1514" 
d="M365 1703h23q34 0 70 -116l47 -47l-24 -233v-350q8 -47 47 -47h47q0 70 116 93v24h350q17 -117 117 -117v-210h47v-280q70 0 93 -117q24 0 24 -46h163v-94q0 -46 -47 -46h-116v-47h-47l-70 47h-164v-47h-93q-36 0 -93 93q48 94 116 94v326l-70 94v210h-140q0 -53 -93 -70
q0 -86 -93 -140h-24v-117l-46 -70v-23h46v-210l117 -70v-70q0 -47 -47 -47h-536v70q46 0 140 117h23v1096q0 37 -93 94h-117v46q0 51 163 117q56 93 164 93z" />
    <glyph glyph-name="i" unicode="i" horiz-adv-x="776" 
d="M347 1143h70q34 0 70 -70v-46q0 -34 -70 -70h-23q-37 0 -94 93q47 57 47 93zM347 770h70q0 -36 47 -93v-374l-24 -46q135 -140 210 -140v-70h-373v-47h-210v70q233 101 233 233q0 280 -116 280l-47 -23q-45 23 -70 23v70q210 47 280 117z" />
    <glyph glyph-name="j" unicode="j" horiz-adv-x="809" 
d="M428 1167h70q37 0 93 -94v-46q-46 -57 -46 -94h-117q0 40 -70 117q70 77 70 117zM405 700h93q0 -47 47 -47v-560h46v-70h-46v-116q-78 -179 -210 -257h-24l-46 23q0 -33 -70 -70h-24q-33 0 -70 70l-46 -23h-47q-41 0 -117 163h-23v187h23q38 0 94 -163q93 0 93 -47h117
q29 0 186 187v46q-46 57 -46 94v70h-24v210q0 36 -93 93q0 -34 -70 -70h-23q0 36 -47 93v47q93 0 93 47h117z" />
    <glyph glyph-name="k" unicode="k" horiz-adv-x="1763" 
d="M513 1727q46 -24 70 -24v-116q-37 0 -70 -47l24 -47v-793l-24 -47q70 0 70 -70q108 94 164 94q210 193 210 303q0 70 46 70h117v47h467v-47q-19 -71 -280 -163q0 -34 -117 -70q0 -24 -93 -24v-116q163 -177 163 -234q327 -314 327 -350h163v-93q-46 0 -46 -47h-490
q-76 0 -117 234q-47 0 -47 46l24 47q-80 0 -164 210l-93 70h-70q0 -47 -164 -140q0 -57 -70 -117v-70l187 -186q0 -47 -47 -47h-303v-47h-93q-52 42 -210 70v24q0 29 163 93l70 93v1027l-140 163q-70 0 -70 -70h-70v140q105 0 280 117q47 0 233 117z" />
    <glyph glyph-name="l" unicode="l" horiz-adv-x="919" 
d="M355 1750h70q47 0 70 -257q23 0 23 -23v-1073h47v-164q0 -38 140 -93v-23h187v-117h-840q-47 0 -47 47v23q131 0 303 257v23q0 47 -23 47l23 163v747l-46 70l-117 -24h-93v70q0 29 303 304v23z" />
    <glyph glyph-name="m" unicode="m" horiz-adv-x="2277" 
d="M359 1097h140q46 0 46 -117h70l140 117h257q73 -70 164 -94v-93h140q0 86 163 140q7 47 47 47h23q0 -70 47 -70q0 70 116 70h24q186 -147 186 -234q47 -7 47 -46v-187h47v-280l163 -117v-93q0 -47 -47 -47h-490q-46 0 -46 47q48 93 116 93v514q-46 53 -46 140h-187
q-140 -47 -140 -94q0 -36 -47 -93v-327q91 -140 164 -140v-70q-41 0 -117 -70h-374q-46 0 -46 47v93q68 0 117 94v233q-71 0 -71 117v93l24 117h-187q-148 -39 -257 -257v-280q70 0 187 -163v-24q0 -33 -70 -70h-257q-46 0 -46 70l-94 -70h-23q-47 0 -47 47v47q40 0 117 70
l-23 46v397l23 117l-47 23h-163q0 -70 -47 -70h-46q-47 0 -47 47q0 50 163 116q0 35 234 164z" />
    <glyph glyph-name="n" unicode="n" horiz-adv-x="1605" 
d="M405 1050q140 -39 140 -187h164q0 54 93 117h397q70 -105 70 -187q70 0 70 -46v-420l-23 -47q37 0 93 -140q58 -70 93 -70v-47q0 -46 -46 -46q-78 0 -117 23l-140 -23h-93q-24 0 -24 23l-47 -23h-46q-47 0 -47 46v47q69 0 117 93v607q-35 0 -94 70h-140
q-116 -140 -210 -140v-187q0 -46 -70 -46v-210q47 0 140 -117h94v-117q0 -46 -47 -46h-653q-47 0 -47 46q47 97 233 164q0 70 70 70v93h-46v373l-140 94q70 61 70 140q112 28 186 93z" />
    <glyph glyph-name="o" unicode="o" horiz-adv-x="1419" 
d="M615 980h326q200 -106 257 -187q59 -70 94 -70v-396q-69 -119 -304 -257l-163 -93h-397q-107 113 -233 163q-31 210 -117 210v163q164 226 187 280h163q0 47 187 187zM521 817q0 -38 -116 -140q0 -94 -70 -94v-210q78 0 116 -116q0 -61 164 -117h350q0 69 70 163
q0 40 70 117q-214 388 -280 397h-304z" />
    <glyph glyph-name="p" unicode="p" horiz-adv-x="1356" 
d="M383 1167h70v-94h187l163 94h140q159 -72 280 -234q0 -140 47 -186v-117q-61 -178 -163 -280l-257 -93h-47q-52 46 -257 70l-46 -70v-887q52 0 93 -70v-24h140v-70h-630l-70 47h-210v70q47 0 47 47h70v-47h140q163 80 163 117v210h47v1237q0 33 -70 70v-47h-140v-47h-117
v24q210 210 350 210q0 33 70 70zM733 1050q0 -52 -93 -70q-70 -56 -117 -163h-23v-280q0 -25 210 -187l46 23h47l47 -23q93 99 140 210h23v350q-52 0 -70 93q-58 0 -117 47h-93z" />
    <glyph glyph-name="q" unicode="q" horiz-adv-x="1377" 
d="M355 980h280l70 -47h47l70 47h513v-23q0 -47 -233 -70q-142 -66 -210 -234v-93l46 -70v-93h-46v-24h46v-70h-46v-770h186v-47h351q70 0 70 94h70q46 -7 46 -47v-70q-186 -14 -186 -93q-70 0 -70 23l-117 -23h-47q-52 0 -93 23l-47 -23q-23 0 -23 23q-290 -23 -397 -117
h-93v94q16 0 93 46v117l47 70v560h-420q-63 17 -187 280v257h47v140q46 0 46 47h140q0 16 47 93zM285 607h47v-280q93 0 93 -47h93l164 70q0 93 70 163v24h-47v46l47 70q-38 0 -94 140l-70 70h-93q-187 -65 -187 -233q-23 0 -23 -23z" />
    <glyph glyph-name="r" unicode="r" horiz-adv-x="1417" 
d="M386 1097h257q0 -73 47 -164h23l303 164h187q34 0 164 -164v-116q-70 -55 -70 -164h-187q0 70 -70 70v164h-164q0 -54 -93 -117q-70 0 -70 -70q-63 -93 -117 -93v-24l47 -70v-93q-70 0 -70 -47q92 -160 257 -186q0 -47 46 -47v-93h-746q-47 0 -47 46v47q210 117 233 117
v583h-233v47q14 61 303 186v24z" />
    <glyph glyph-name="s" unicode="s" horiz-adv-x="1131" 
d="M712 1143h163q8 -140 93 -140v-210h-23q-133 126 -257 187h-70q-53 -47 -140 -47v-23q65 -117 210 -117q47 -111 280 -350v-186q-121 -162 -280 -234h-163v47h-93v-47h-117q-85 45 -210 304q-32 46 -70 46v117q7 47 47 47h23q334 -329 420 -350h187q0 46 93 46v94
q-52 0 -70 93q-26 42 -257 187q0 59 -116 70q0 32 -94 163v23q93 186 234 234h210v46z" />
    <glyph glyph-name="t" unicode="t" horiz-adv-x="1134" 
d="M327 1750h70q46 0 70 -187q23 0 23 -23v-373h373q47 -8 47 -47v-93q-93 0 -93 -47h-234q-46 -7 -46 -47l23 -46q0 -70 -70 -70v-420q0 -33 140 -140h187l280 256q47 -7 47 -46v-70q-164 -207 -164 -257q-158 -28 -210 -70h-257q-121 73 -163 210q-47 0 -47 47v46l24 47
q-45 23 -70 23v444q0 93 -327 116v47q7 47 47 47h116q0 70 164 70v513q70 0 70 70z" />
    <glyph glyph-name="u" unicode="u" horiz-adv-x="1584" 
d="M221 1073h164q46 -7 46 -46v-630l70 -94l-23 -46l47 -24h186q187 147 187 234q47 0 47 46v304l-117 140v46q35 0 93 70h164q31 0 117 -116v-164q0 -46 -70 -46v-94q70 0 70 -46q0 -47 -70 -47v-47q0 -46 70 -46v-164q89 -70 303 -93l47 -70q0 -47 -47 -47h-140v-46h-374
q0 72 -46 163h-47q0 -53 -117 -70q0 -37 -93 -93h-303q-117 70 -117 186h-47v514q-53 0 -70 116q-58 70 -93 70v70q93 0 163 70z" />
    <glyph glyph-name="v" unicode="v" horiz-adv-x="1634" 
d="M-2 1050h24l93 -70h47q46 0 46 70h210v-47h47v47h23q62 -70 140 -70v-70q-16 0 -93 -47v-46q73 -83 117 -187q80 0 140 -257h140q130 297 210 397v140q-117 0 -117 47v46q7 47 47 47h560q47 -7 47 -47v-23q-70 0 -70 -70h-117q-152 -47 -397 -350q-36 -128 -210 -420
q0 -93 -140 -117q-97 187 -140 187q-115 283 -350 537l-47 116h-116q-52 42 -257 70v47q93 0 163 70z" />
    <glyph glyph-name="w" unicode="w" horiz-adv-x="2268" 
d="M-121 1027h630v-117h-47v-47q170 -169 280 -443h24q166 218 233 397v116q47 0 47 94h117q0 -47 210 -210q155 -363 233 -397q25 0 233 443q-36 0 -93 94v70h537v-24q-16 -38 -327 -163q-140 -151 -140 -163v-117h-47v-117l-46 -70v-116q-38 0 -117 -140h-70
q-44 0 -163 210q-52 3 -140 233q-76 29 -140 210h-24q0 -47 -46 -47v-116q-73 -137 -164 -234v-163q-52 0 -93 -70v-23h-70q-74 194 -257 303v117q-93 78 -93 163q-140 0 -140 140l-94 70h-116v47h-47v-47h-23q-47 0 -47 47v70z" />
    <glyph glyph-name="x" unicode="x" horiz-adv-x="1377" 
d="M104 1120h514v-70l-47 -70v-23h47v-117q46 -57 46 -93h47q51 0 117 163q33 0 70 70v23h-94v70q47 0 47 47h514v-23q0 -41 -257 -94l-280 -303v-70l140 -210q117 -93 117 -140h163v-140h-490v93l46 70q-111 54 -140 187l-46 23q0 -210 -70 -210h-47v-23q117 0 117 -47v-23
q-70 0 -70 -70h-537v47q0 46 233 70q187 80 187 116q33 129 163 164v93q-186 90 -186 210q-140 122 -140 163h-164v117z" />
    <glyph glyph-name="y" unicode="y" horiz-adv-x="1319" 
d="M508 1097h46q0 -47 47 -47v-47q-16 0 -93 -46v-24q0 -32 280 -280q75 24 140 164q36 0 93 93v140h350v-47q-83 0 -187 -116q-420 -466 -420 -537l-280 -350q0 -34 -397 -420q-113 -18 -140 -117h-93v23q84 140 280 210q5 164 117 164q26 62 280 373q0 41 140 210v70
q-145 105 -233 210q-87 117 -117 117q-129 117 -140 117h-164q0 46 -93 46v47h584v47zM-706 -444h210l70 -116h163v46h47q47 -7 47 -46v-24q0 -70 -374 -70q-163 33 -163 94v116z" />
    <glyph glyph-name="z" unicode="z" horiz-adv-x="1583" 
d="M216 1120h70v-47h397v47h70v-47h47v47h467q0 -40 70 -117v-23q-626 -677 -724 -677h-23v-163h46v-70h-163q0 -70 -47 -70q-46 0 -46 70h-47l-93 -70h-187v93q56 0 303 280q146 140 210 140q0 132 210 257q0 65 187 117v93h-350q-163 -70 -163 -117h-164q0 -54 -93 -116
h-47q-46 0 -46 46v164q116 121 116 163zM1453 373h94v-93q-156 -210 -234 -210q-35 0 -93 -70h-23q0 70 -47 70h-210q-47 0 -47 47v23h140z" />
    <glyph glyph-name="dieresis" unicode="&#xa8;" horiz-adv-x="721" 
d="M74 1289l71 72q13 12 25 12q11 0 27 -14l69 -73q10 -14 10 -25q0 -13 -12 -27l-69 -75q-17 -17 -25 -17q-14 0 -25 12l-76 86q-9 12 -9 23q0 13 14 26zM439 1289l71 72q13 12 25 12q11 0 27 -13l69 -74q10 -14 10 -25q0 -13 -12 -26l-69 -76q-17 -17 -25 -17
q-14 0 -25 12l-76 87q-9 11 -9 22q0 13 14 26z" />
    <glyph glyph-name="acute" unicode="&#xb4;" horiz-adv-x="601" 
d="M351 1375q35 35 55.5 47t40.5 12q33 0 53.5 -20t20.5 -51q0 -22 -15.5 -42t-46.5 -40l-330 -203h-69z" />
    <glyph glyph-name="cedilla" unicode="&#xb8;" horiz-adv-x="548" 
d="M60 -290q85 -52 152 -52q66 0 94.5 21.5t28.5 66.5t-49 64q-40 16 -102 16q-16 0 -34 -2l48 176h63l-37 -104q32 4 62 5q86 0 134 -40.5t48 -113.5q0 -76 -58.5 -120.5t-160.5 -44.5q-109 0 -189 32v96z" />
    <glyph glyph-name="circumflex" unicode="&#x2c6;" horiz-adv-x="722" 
d="M60 1079l232 355h118l232 -355h-58l-233 216l-233 -216h-58z" />
    <glyph glyph-name="caron" unicode="&#x2c7;" horiz-adv-x="722" 
d="M60 1434h58l233 -214l233 214h58l-232 -356h-118z" />
    <glyph glyph-name="breve" unicode="&#x2d8;" horiz-adv-x="724" 
d="M60 1349h51q17 -73 75 -107t167 -34t166 33.5t74 107.5h51q-20 -133 -94 -201.5t-197 -68.5q-122 0 -197 69t-96 201z" />
    <glyph glyph-name="dotaccent" unicode="&#x2d9;" horiz-adv-x="355" 
d="M74 1289l69 72q6 6 13 9t14 3q6 0 12.5 -3t12.5 -9l71 -76q5 -4 7 -10t2 -14q-1 -9 -3 -15t-8 -12l-71 -76q-12 -11 -16 -13.5t-7 -2.5q-10 0 -16.5 2.5t-10.5 8.5l-75 87q-4 4 -6 9.5t-2 13.5q0 6 3 12.5t11 13.5z" />
    <glyph glyph-name="ring" unicode="&#x2da;" horiz-adv-x="495" 
d="M136 1257q0 -42 29 -71t71 -29t71 29t29 71q0 40 -29.5 69.5t-70.5 29.5t-70.5 -29.5t-29.5 -69.5zM60 1257q0 75 51 126t125 51q76 0 127.5 -51.5t51.5 -125.5q0 -75 -51.5 -126.5t-127.5 -51.5q-74 0 -125 51.5t-51 126.5z" />
    <glyph glyph-name="ogonek" unicode="&#x2db;" horiz-adv-x="508" 
d="M331 0q-71 -62 -110.5 -119.5t-39.5 -112.5q0 -47 27 -75t73 -28q40 0 69.5 15.5t49.5 48.5l28 -16q-36 -63 -90.5 -97t-119.5 -34q-70 0 -114 35.5t-44 90.5q0 76 60.5 156.5t161.5 135.5h49z" />
    <glyph glyph-name="tilde" unicode="&#x2dc;" horiz-adv-x="714" 
d="M634 1382q-20 -103 -68.5 -154t-126.5 -51h-4q-50 0 -113 23q-66 24 -114 24q-39 0 -60.5 -20.5t-33.5 -71.5h-54q19 106 68 158.5t129 52.5q46 -1 113 -24q64 -23 112 -23h4q36 0 58 20t36 66h54z" />
    <glyph glyph-name="hungarumlaut" unicode="&#x2dd;" horiz-adv-x="729" 
d="M60 1079l144 273q24 44 45.5 63t46.5 19q28 0 48 -20t20 -47q0 -16 -10.5 -35t-30.5 -41l-205 -212h-58zM345 1079l144 273q24 44 45.5 63t46.5 19q28 0 48 -20t20 -47q0 -16 -10.5 -35t-30.5 -41l-205 -212h-58z" />
    <glyph glyph-name="quoteleft" unicode="&#x2018;" horiz-adv-x="420" 
d="M270 1405h-23q-172 0 -187 70v234q0 29 187 186h23q47 0 47 -46q0 -22 -94 -140v-47q117 0 117 -70v-117q0 -33 -70 -70z" />
    <glyph glyph-name="quoteright" unicode="&#x2019;" horiz-adv-x="420" 
d="M130 1895h23q172 0 187 -70v-234q0 -29 -187 -186h-23q-47 0 -47 46q0 22 94 140v47q-117 0 -117 70v117q0 33 70 70z" />
    <glyph glyph-name="quotedblleft" unicode="&#x201c;" horiz-adv-x="812" 
d="M270 1405h-23q-172 0 -187 70v234q0 29 187 186h23q47 0 47 -46q0 -22 -94 -140v-47q117 0 117 -70v-117q0 -33 -70 -70zM662 1405h-23q-172 0 -187 70v234q0 29 187 186h23q47 0 47 -46q0 -22 -94 -140v-47q117 0 117 -70v-117q0 -33 -70 -70z" />
    <glyph glyph-name="quotedblright" unicode="&#x201d;" horiz-adv-x="812" 
d="M130 1895h23q172 0 187 -70v-234q0 -29 -187 -186h-23q-47 0 -47 46q0 22 94 140v47q-117 0 -117 70v117q0 33 70 70zM522 1895h23q172 0 187 -70v-234q0 -29 -187 -186h-23q-47 0 -47 46q0 22 94 140v47q-117 0 -117 70v117q0 33 70 70z" />
    <glyph glyph-name="ellipsis" unicode="&#x2026;" horiz-adv-x="1568" 
d="M263 419l121 -70q29 -17 52 -192l-47 -81q-17 -29 -192 -51l-40 23l24 41l-121 70q24 42 24 69q0 24 -19 35l24 40q154 80 174 116zM789 419l121 -70q29 -17 52 -192l-47 -81q-17 -29 -192 -51l-39 23l23 41l-121 70q25 43 25 70q0 23 -19 34l23 40q154 80 174 116z
M1315 419l122 -70q28 -17 51 -192l-47 -81q-17 -29 -191 -51l-40 23l23 41l-121 70q25 43 25 70q0 23 -19 34l23 40q154 80 174 116z" />
  </font>
</defs>
</svg>
